<?xml version="1.0" standalone="no"?>
<!DOCTYPE svg PUBLIC "-//W3C//DTD SVG 20010904//EN"
 "http://www.w3.org/TR/2001/REC-SVG-20010904/DTD/svg10.dtd">
<svg version="1.0" xmlns="http://www.w3.org/2000/svg"
 width="700.000000pt" height="700.000000pt" viewBox="0 0 700.000000 700.000000"
 preserveAspectRatio="xMidYMid meet">
<metadata>
Created by potrace 1.14, written by Peter Selinger 2001-2017
</metadata>
<g transform="translate(0.000000,700.000000) scale(0.100000,-0.100000)"
fill="#000000" stroke="none">
<path d="M3245 6149 c-618 -63 -1192 -335 -1625 -769 -442 -444 -712 -1018
-769 -1640 -7 -76 -11 -660 -11 -1712 l0 -1598 2660 0 2660 0 0 1598 c0 1052
-4 1636 -11 1712 -75 811 -511 1536 -1194 1986 -325 214 -688 350 -1090 410
-121 18 -496 26 -620 13z m567 -1118 c309 -66 563 -205 789 -430 181 -182 292
-358 373 -590 66 -188 80 -279 80 -511 0 -232 -14 -323 -80 -511 -81 -232
-192 -408 -373 -590 -228 -227 -478 -363 -795 -431 -149 -32 -455 -32 -608 0
-551 115 -990 498 -1172 1021 -66 188 -80 279 -80 511 0 232 14 323 80 511 81
233 192 408 373 590 252 252 550 400 901 449 110 15 401 4 512 -19z m1578
-3786 l0 -215 -1890 0 -1890 0 0 215 0 215 1890 0 1890 0 0 -215z"/>
<path d="M4437 4454 c-21 -7 -95 -62 -165 -122 -172 -147 -286 -237 -554 -435
l-227 -168 -56 37 c-94 60 -313 162 -425 198 -125 41 -178 38 -218 -11 -51
-61 -102 -143 -102 -162 0 -46 32 -88 99 -128 86 -53 339 -179 475 -237 135
-58 166 -74 192 -97 11 -10 40 -22 65 -25 41 -6 48 -3 93 34 26 22 61 56 77
75 16 19 102 81 192 138 305 192 502 343 651 500 116 121 156 182 156 234 0
46 -17 67 -103 124 -77 52 -106 61 -150 45z"/>
</g>
</svg>
