<?xml version="1.0" encoding="UTF-8" standalone="no"?>
<!-- Created with Inkscape (http://www.inkscape.org/) -->

<svg
   width="200"
   height="200"
   viewBox="0 0 52.916667 52.916667"
   version="1.1"
   id="svg21"
   xmlns="http://www.w3.org/2000/svg">
  <defs
     id="defs18" />
  <g
     id="layer1">
    <g
       id="g5066">
      <circle
         style="display:inline;fill:#78baa5;fill-opacity:1;stroke:#278b70;stroke-width:2.11667;stroke-dasharray:none;stroke-opacity:1"
         id="path127"
         clip-path="none"
         cx="26.458334"
         cy="26.458334"
         r="19.057056" />
      <g
         id="g4951">
        <path
           id="rect4946"
           style="display:inline;fill:#78baa5;stroke-width:2.11667"
           d="M 7.4013343,26.729267 H 45.515333 V 48.641058 H 7.4013343 Z" />
        <path
           id="rect4820"
           style="display:inline;fill:none;stroke:#278b70;stroke-width:2.11667"
           d="m 44.456879,27.787649 h 1.058333 l 1.21e-4,20.853409 H 7.4013343 l 1.199e-4,-20.853409 h 1.0583333" />
      </g>
    </g>
    <g
       id="g16270"
       style="display:inline">
      <circle
         style="display:inline;fill:#e1efec;fill-opacity:1;stroke:none;stroke-width:0.256179;stroke-dasharray:none;stroke-opacity:1"
         id="path9438"
         cx="26.458334"
         cy="26.458334"
         r="11.77816" />
      <path
         style="display:inline;fill:#000000;fill-opacity:1;stroke:#000000;stroke-width:1.19062;stroke-dasharray:none;stroke-opacity:1"
         id="path16261"
         d="m 20.916733,24.402165 c 1.168684,0.784037 2.463842,1.354622 3.735685,1.947673 0.304595,0.133371 0.51136,0.230695 0.810379,0.341619 0.05295,0.01963 0.105138,0.04644 0.161376,0.05155 0.04406,0.004 0.436889,-1.418108 0.875244,-1.027484 -1.045004,1.509206 -0.957173,0.933734 -0.331965,1.272179 0.170617,0.130953 0.310997,0.294105 0.475198,0.43366 0.07024,0.07177 1.085281,-0.921581 1.015042,-0.993355 v 0 c -0.0738,-0.04811 -0.156676,-0.08202 -0.22782,-0.133974 -0.106523,-0.0778 -0.171122,-0.208672 -0.279482,-0.284406 -0.145007,-0.117274 -0.285374,-0.219454 -0.458814,-0.291979 -0.58349,-0.243989 -0.526285,0.296819 -1.036747,1.033469 0.459735,0.351001 0.200195,0.211492 1.018417,-0.929774 0.03014,-0.04204 -0.05394,-0.08877 -0.08739,-0.128227 -0.115972,-0.136807 -0.293059,-0.279252 -0.430064,-0.380553 -0.148165,-0.109552 -0.302501,-0.210501 -0.453751,-0.315752 -1.241346,-0.735075 -2.545035,-1.36004 -3.948007,-1.722304 -0.07974,-0.05921 -0.91704,1.068452 -0.837302,1.127659 z" />
      <path
         style="display:inline;fill:#000000;fill-opacity:1;stroke:#000000;stroke-width:1.19062;stroke-linecap:round;stroke-linejoin:round;stroke-dasharray:none;stroke-opacity:1"
         id="path16265"
         d="m 33.716936,19.763791 c -0.694947,0.560603 -1.349428,1.169778 -2.039572,1.736308 -0.146971,0.120646 -1.243696,0.981142 -1.397479,1.101982 -1.016257,0.778816 -2.057072,1.52481 -3.087696,2.284376 -0.23632,0.173276 -0.458636,0.372265 -0.714047,0.518983 -0.01101,0.0063 -0.04757,0.01693 -0.0365,0.01074 0.229485,-0.128202 0.228329,-0.0285 0.629903,0.03365 0.04456,0.04307 0.08716,0.08826 0.13367,0.129211 0.02471,0.02176 -0.03706,-0.06066 -0.06814,-0.07152 -0.233579,-0.08165 -0.467635,-0.18255 -0.714308,-0.201981 -0.170021,-0.01339 -0.401825,0.217077 -0.531666,0.31571 -0.270179,0.208895 -0.411822,0.521424 -0.492615,0.844176 -0.02132,0.09441 1.313914,0.395986 1.33524,0.30157 v 0 c 0.03433,-0.08423 0.07473,-0.143706 0.152746,-0.194503 0.166696,-0.134837 -0.0489,0.04302 -0.11522,0.03191 -0.623432,-0.104439 -0.84679,-0.429858 -0.46473,-0.04697 0.20212,0.03903 0.401137,0.101004 0.606364,0.117075 0.07876,0.0062 0.155353,-0.02987 0.231336,-0.05148 0.413078,-0.117523 0.774112,-0.364411 1.130636,-0.594229 1.111086,-0.715956 2.2583,-1.378862 3.311752,-2.180938 1.2289,-0.958737 2.455206,-1.970374 3.323124,-3.283254 0.05663,-0.08434 -1.136176,-0.885153 -1.192802,-0.800809 z" />
      <path
         style="fill:#000000;fill-opacity:1;stroke:none;stroke-width:0.224102;stroke-dasharray:none;stroke-opacity:1"
         id="path16423"
         d="m 26.132166,25.648926 c -0.217753,0.07494 -0.433679,0.21706 -0.53877,0.430864 -0.03935,0.08005 -0.06522,0.166054 -0.09783,0.249081 0.0146,0.312935 -0.0095,0.610059 0.319937,0.774635 0.0116,0.0058 -0.01882,-0.01789 -0.02757,-0.02747 -0.09456,-0.103519 -0.06566,-0.06338 -0.120129,-0.156165 -0.01693,-0.042 -0.03216,-0.08472 -0.05078,-0.12599 -0.01139,-0.02524 0.0148,0.0541 0.02906,0.07785 0.102343,0.170492 0.125997,0.215 0.254919,0.31628 0.107119,0.08661 0.234544,0.141878 0.35976,0.197604 0.29087,0.134858 0.624383,0.07501 0.928963,0.024 0.197334,-0.05429 0.44265,-0.143343 0.554122,-0.333058 0.0642,-0.109273 0.103352,-0.231452 0.155027,-0.347178 0.0275,-0.155604 0.0028,-0.289708 -0.03916,-0.436106 -0.0038,-0.01325 0.0086,0.02622 0.01206,0.03955 0.0099,0.03757 0.0056,0.0648 0.0064,0.108522 0.05026,-0.107315 -0.01701,0.06863 -0.006,0.05419 0.03879,-0.05068 0.05176,-0.209051 0.05996,-0.265324 0.0024,-0.243981 -0.09077,-0.55829 -0.324089,-0.679999 -0.01463,-0.0095 -0.0266,-0.0261 -0.04388,-0.02851 -0.01042,-0.0015 0.01596,0.01506 0.01918,0.02507 0.0013,0.0042 -0.0083,-0.0028 -0.01246,-0.0042 -0.01789,-0.01416 -0.0654,-0.06201 -0.05362,-0.04248 0.02167,0.03592 0.05577,0.06269 0.08434,0.09341 0.0154,0.01656 -0.02988,-0.03394 -0.04482,-0.05092 -0.150865,-0.12981 -0.08418,-0.08769 -0.25323,-0.176176 -0.01561,-0.0082 0.0315,0.01611 0.04596,0.02621 0.0067,0.0047 -0.02851,-0.015 -0.02236,-0.0097 0.02058,0.01764 0.04458,0.03086 0.06615,0.04727 0.0086,0.0065 -0.0181,-0.01173 -0.02715,-0.0176 -0.114472,-0.07752 -0.175829,-0.08727 -0.30294,-0.130042 -0.231489,-0.06059 -0.51681,-0.06065 -0.724291,0.07981 -0.04196,0.02841 -0.08033,0.0618 -0.120493,0.09271 -0.08816,0.05052 -0.164769,0.14384 -0.23334,0.242427 -0.103984,0.193411 -0.124217,0.406965 -0.06063,0.615389 -0.0187,-0.06643 0.02866,0.08923 0.03814,0.114639 0.03066,0.08956 1.297196,-0.344075 1.266533,-0.433632 v 0 c 0.01,0.03033 0.03461,0.140736 0.0065,0.01051 -0.01119,-0.0428 -0.01564,-0.06147 -0.01751,-0.05904 -0.0054,0.007 0.0021,0.01754 0.0027,0.02635 0.0024,0.03523 0.009,0.07052 0.0065,0.105742 -0.01188,0.167384 -0.02387,0.162204 -0.08769,0.310114 -0.08783,0.130447 -0.107119,0.134157 0.01458,0.04561 -0.160078,0.13046 -0.368088,0.222027 -0.583739,0.101663 -0.0118,-0.0078 -0.04618,-0.0199 -0.03346,-0.02609 0.0057,-0.0028 0.01243,0.0031 0.01831,0.0055 0.07169,0.02991 0.06636,0.03801 0.02386,-0.0011 -0.01156,-0.01061 -0.02238,-0.02204 -0.03357,-0.03305 0.05298,0.0123 -0.0099,-0.0037 0.112924,0.06906 0.02965,0.01757 0.114266,0.06918 0.09513,0.04052 -0.0462,-0.06919 -0.171913,-0.05871 -0.193879,-0.157179 -0.0085,-0.01154 -0.03568,-0.04479 -0.02558,-0.0346 0.03553,0.03582 0.06805,0.07449 0.102076,0.111735 -0.0089,-0.0086 -0.01709,-0.01789 -0.02661,-0.02574 -0.01381,-0.0114 0.07262,0.07703 0.09327,0.08083 0.0132,0.0091 0.02426,0.02267 0.03961,0.02737 0.0051,0.0016 5.29e-4,-0.01138 -0.0024,-0.01595 -0.02011,-0.03251 -0.04756,-0.06033 -0.0657,-0.09397 -0.0714,-0.132357 -0.09261,-0.227578 -0.08458,-0.375735 0.0062,-0.0369 0.01929,-0.07286 0.02138,-0.110229 2.09e-4,-0.0038 -0.0059,0.0049 -0.0078,0.0082 -0.0082,0.01469 -0.01564,0.02983 -0.02209,0.04536 -0.0405,0.09708 -0.03443,0.0944 -0.06276,0.209887 -0.0042,0.05769 -0.01225,0.115219 -0.01259,0.173055 -5.29e-4,0.08358 0.04062,0.330174 0.04496,0.246698 0.0011,-0.01908 -0.0033,-0.03818 -0.0021,-0.05723 0.0032,-0.04921 0.01029,-0.0981 0.01545,-0.14715 0.04681,-0.0944 0.08783,-0.191896 0.140441,-0.28319 0.01805,-0.03129 0.05138,-0.05169 0.07028,-0.08248 0.01738,-0.0283 -0.151974,0.01018 -0.151299,0.0092 -0.02177,0.0051 -0.04353,0.01017 -0.06529,0.01526 -0.0056,2.65e-4 -0.01132,-1.03e-4 -0.01691,7.94e-4 -0.0146,0.0024 -0.05823,0.0087 -0.04344,0.009 0.311219,0.0081 0.273545,-0.06077 0.424712,0.05571 0.02424,0.02857 -0.02995,0.0037 -0.03979,-0.0021 -0.0704,-0.04166 -0.05869,-0.06654 -0.06899,-0.02412 -0.06756,-0.04365 -0.107574,-0.07088 -0.106175,-0.062 0.0037,0.02321 0.03344,0.03342 0.04658,0.05289 0.0477,0.07064 0.09356,0.14265 0.135531,0.216838 0.0092,0.01622 0.02453,0.07036 0.01722,0.0532 -0.02177,-0.05132 -0.04052,-0.103876 -0.06078,-0.155814 -0.06303,-0.102396 -0.133123,-0.208374 -0.239451,-0.271318 -0.01071,-0.0063 0.01842,0.01711 0.02535,0.02747 0.228886,0.34218 0.153903,0.170848 0.174631,0.647987 -0.02577,0.0619 -0.05265,0.123341 -0.07728,0.185701 -0.0058,0.01468 -0.02209,0.03176 -0.01394,0.0453 0.02093,0.03476 0.238529,-0.127227 0.253433,-0.147616 0.07899,-0.05922 -0.75844,-1.176213 -0.837424,-1.116998 z" />
    </g>
    <rect
       style="display:inline;fill:#e1efec;fill-opacity:1;stroke:none;stroke-width:2.26386;stroke-dasharray:none;stroke-opacity:1"
       id="rect10298"
       width="28.575001"
       height="3.175"
       x="12.170833"
       y="41.920784" />
    <rect
       style="display:none;fill:#ccbba3;fill-opacity:1;stroke:none;stroke-width:1.60079;stroke-dasharray:none;stroke-opacity:1"
       id="rect10327"
       width="28.575001"
       height="1.5875"
       x="12.170833"
       y="41.921001" />
  </g>
</svg>
